<?xml version="1.0" encoding="utf-8"?>
<!-- Generator: Adobe Illustrator 12.0.1, SVG Export Plug-In . SVG Version: 6.00 Build 51448)  -->
<!DOCTYPE svg PUBLIC "-//W3C//DTD SVG 1.1//EN" "http://www.w3.org/Graphics/SVG/1.1/DTD/svg11.dtd" [
	<!ENTITY ns_svg "http://www.w3.org/2000/svg">
	<!ENTITY ns_xlink "http://www.w3.org/1999/xlink">
]>
<svg  version="1.1" id="Elements" xmlns="&ns_svg;" xmlns:xlink="&ns_xlink;" width="960px" 
	 viewBox="0 0 360 239.355" overflow="visible" enable-background="new 0 0 360 239.355" xml:space="preserve">
<path fill="#FCE7F0" d="M360,98.233c0-21.299-17.262-38.561-38.551-38.561c-8.085,0-15.579,2.496-21.776,6.738
	c0.786-3.065,1.205-6.271,1.205-9.589c0-21.29-17.271-38.551-38.561-38.551c-9.57,0-18.317,3.486-25.056,9.262
	C230.486,11.355,214.514,0,195.878,0c-22.271,0-40.738,16.234-44.252,37.514c-5.364-9.888-15.832-16.607-27.869-16.607
	c-16.804,0-30.542,13.084-31.617,29.607c-2.393-0.579-4.897-0.897-7.477-0.897c-10.963,0-20.636,5.58-26.318,14.038
	c-5.785-3.458-12.551-5.458-19.785-5.458C17.261,58.196,0,75.458,0,96.757c0,18.262,12.71,33.552,29.766,37.533
	c-8.327,5.71-13.794,15.29-13.794,26.149c0,17.505,14.196,31.692,31.692,31.692c6.906,0,13.299-2.224,18.504-5.972
	c-0.841,3.336-1.29,6.832-1.29,10.44c0,23.616,19.149,42.756,42.766,42.756c20.626,0,37.841-14.607,41.87-34.047
	c6.159,13.112,19.476,22.206,34.915,22.206c14.627,0,27.337-8.14,33.879-20.131c5.972,13.561,19.523,23.019,35.289,23.019
	c20.253,0,36.852-15.627,38.421-35.477c6.664,3.935,14.439,6.197,22.739,6.197c24.775,0,44.859-20.084,44.859-44.86
	c0-11.589-4.393-22.141-11.599-30.103C355.392,119.131,360,109.225,360,98.233z M102.147,134.839
	c0.118-9.149,0.613-18.292,1.478-27.401c0.369-4.114,0.583-6.169,1.077-10.266c0.289-2.796,0.447-4.192,0.796-6.976
	c0.458-3.122-0.268-4.042-3.321-4.093c-1.659-0.028-2.488-0.041-4.147-0.069c0.236-1.28,0.357-1.919,0.607-3.196
	c7.086-0.538,12.852-1.804,17.242-3.759c0.3,0.259,0.452,0.388,0.754,0.646c-1.888,9.254-3.277,18.617-4.028,28.034
	c-0.708,9.127-1.105,18.279-1.187,27.434c-0.042,4.839-2.506,19.17,4.663,19.756c1.867,0.152,2.8,0.228,4.666,0.378
	c0.045,1.213,0.07,1.818,0.123,3.028c-9.029-0.35-18.069-0.042-27.081,0.559c-0.087-1.228-0.126-1.842-0.2-3.073
	c1.872-0.182,2.808-0.273,4.681-0.455C105.325,154.647,102.087,139.471,102.147,134.839z M69.492,158.513
	c-6.333-2.561-9.972-8.833-12.159-14.733c-5.308-14.316-3.346-30.941,3.838-44.346c3.306-6.169,8.645-13.417,15.363-15.591
	c2.652-0.858,5.489-0.911,7.604,0.241c4.301,2.343,2.101-0.759,6.016-0.688c0.89,0.016,1.334,0.025,2.225,0.041
	c1.777,0.032,1.065,2.85,0.928,3.939c-0.734,5.87-1.014,8.823-1.406,14.739c-0.079,2.191-0.729,3.758-3.161,3.743
	c-4.3-0.027-3.282-5.701-3.484-8.77c-0.508-7.702-5.522-10.093-7.39-0.249c-2.87,17.422-4.181,34.322-3.933,51.979
	c0.137,3.431,1.283,5.124,3.324,5.088c6.563-0.117,1.333-11.42,6.237-12.833c8.425-2.428,5.956,8.275,3.503,12.258
	C83.389,159.19,76.161,161.208,69.492,158.513z M108.2,223.233c-0.019-0.013-20.741-12.885-20.536-21.645
	c0.206-8.764,17.487-9.413,19.168-1.758c0.782-7.827,17.998-9.588,19.222-0.924C127.275,207.565,108.22,223.217,108.2,223.233z
	 M137.618,138.952L137.618,138.952L137.618,138.952c-0.01-0.012-9.832-10.851-9.384-17.381c0.448-6.534,9.087-5.998,9.625-0.181
	c0.698-5.8,9.349-6.098,9.617,0.445C147.743,128.375,137.628,138.941,137.618,138.952L137.618,138.952z M157.19,133.524
	c-0.666,8.695-3.144,21.31-16.472,24.14c-0.045-1.679-0.066-2.52-0.104-4.206c15.205-7.639,17.698-50.023-2.597-50.167
	c-20.943-0.147-19.647,42.619-3.273,50.246c0.045,1.689,0.07,2.533,0.127,4.215c-11.705-2.276-15.273-12.174-16.688-19.896
	c-1.898-10.355-0.981-21.722,5.73-31.095c5.304-7.404,17.362-10.665,24.746-3.363C157.112,111.757,158.23,123.227,157.19,133.524z
	 M204.539,155.925c-0.149,0.229-0.637,0.356-1.477,0.374c-5.666,0.115-8.498,0.174-14.164,0.29
	c-2.027,0.042-2.355-0.786-2.325-2.359c0.008-0.43,0.014-0.645,0.021-1.075c0.021-1.157,0.017-1.794-0.014-1.943
	c-8.189,7.268-23.835,8.205-22.672-6.884c-0.088-13.578-0.248-27.153-0.477-40.729c-2.574-1.173-2.394-2.111-2.708-4.626
	c-0.194-1.551,0.438-2.298,2.012-2.15c5.515,0.063,8.273,0.093,13.789,0.156c0.677,0.008,1.093,0.114,1.259,0.317
	c0.156,0.214,0.258,0.71,0.303,1.489c0.727,14.418,1.173,28.803,1.333,43.238c0.014,3.754,3.832,8.636,7.189,3.515
	c-0.079-13.504-0.499-26.936-1.252-40.418c-0.062-0.969-6.635-8.117-1.692-8.061c5.812,0.065,8.718,0.1,14.528,0.165
	c1.163-0.084,1.674,0.471,1.524,1.664c1.651,16.581,2.468,32.993,2.421,49.656c-0.017,0.943,0.401,1.599,1.246,1.951
	C205.068,151.311,205.511,154.444,204.539,155.925z M251.637,153.931c-0.078,0.92-0.566,1.39-1.47,1.408
	c-6.504,0.133-9.755,0.199-16.26,0.332c-1.806,0.037-0.969-2.55-0.842-3.604c0.145-2.608,0.194-3.916,0.255-6.538
	c0.039-1.715,0.048-2.576,0.052-4.296c0.024-11.7-0.931-23.399-2.785-34.95c-3.651-1.928-6.925-1.07-6.37,3.126
	c1.553,11.718,2.266,23.549,2.077,35.37c-0.021,1.236,0.654,2.613,1.629,3.334c1.4,1.035,3.741,5.112-0.784,7.561
	c-16.538,7.869-18.288-19.896-18.587-29.428c-0.225-7.184-1.036-15.749,1.434-22.38c3.198-8.589,12.058-8.443,19.774-2.414
	c-0.545-2.991-0.841-4.485-1.485-7.465c-0.587-2.711-3.16-1.226-3.763-3.908c-0.148-0.663-0.224-0.994-0.377-1.657
	c-0.386-1.154,0.026-1.624,1.251-1.412c5.473,0.096,8.207,0.144,13.681,0.239c1.445-0.065,2.263,0.643,2.418,2.128
	c5.067,19.629,7.514,38.444,7.236,58.722c-0.104,2.275,3.219,1.829,3.084,3.702C251.744,152.653,251.71,153.08,251.637,153.931z
	 M246.134,41.793c1.616-7.64,16.853-5.378,17.073,1.6c1.966-6.726,17.329-5.448,16.981,2.338
	c-0.35,7.783-19.598,18.369-19.616,18.378C260.557,64.096,244.52,49.431,246.134,41.793z M313.622,160.631
	c-3.057,7.103-7.112,12.383-12.149,15.841c-5.038,3.458-10.721,5.187-17.038,5.187c-6.121,0-10.915-1.355-14.374-4.065
	c-3.458-2.71-5.187-5.953-5.187-9.729c0-2.495,0.71-4.504,2.141-6.028c1.42-1.523,3.214-2.29,5.383-2.29
	c1.963,0,3.626,0.664,4.99,1.972c1.364,1.318,2.048,2.897,2.048,4.729c0,1.318-0.627,2.776-1.86,4.374c-0.767,1-1.14,1.85-1.14,2.57
	c0,1.121,0.654,2.093,1.971,2.907c1.318,0.822,3.44,1.224,6.356,1.224c4.158,0,7.813-1.14,10.971-3.439
	c3.16-2.29,5.72-6.065,7.673-11.309c1.963-5.252,2.944-12.046,2.944-20.383l-0.121-5.327c0-12.28,0.617-17.196-0.888-22h-0.01
	c-0.747-3.673-2.168-6.785-4.243-9.327c-3.271-4-7.168-6-11.701-6c-4.495,0-8.187,1.869-11.074,5.607
	c-2.888,3.729-4.327,9.355-4.327,16.86c0,6.87,1.439,11.991,4.327,15.365c2.888,3.383,6.663,5.065,11.308,5.065
	c2.814,0,5.347-0.673,7.608-2.019c0.009-0.009,0.009-0.009,0.019-0.019c0.486-0.28,0.953-0.598,1.411-0.954
	c2.701-1.29,2.776,2.44-0.187,5.402c-0.449,0.309-0.907,0.588-1.375,0.851c-3.485,1.972-7.392,2.962-11.72,2.962
	c-6.009,0-11.457-2.094-16.373-6.29c-4.906-4.197-7.355-10.374-7.355-18.524c0-7.944,2.711-14.701,8.141-20.28
	c5.42-5.57,11.897-8.355,19.421-8.355c8.289,0,15.187,3.439,20.71,10.317c5.533,6.878,8.29,16.542,8.29,28.981
	C318.21,144.827,316.677,153.537,313.622,160.631z M280.03,115.72c0.448-6.533,9.087-5.997,9.624-0.18
	c0.698-5.8,9.35-6.099,9.618,0.445c0.267,6.541-9.849,17.106-9.859,17.117C289.404,133.09,279.582,122.251,280.03,115.72z"/>
</svg>
